<?xml version="1.0" standalone="no"?>
<!DOCTYPE svg PUBLIC "-//W3C//DTD SVG 20010904//EN"
 "http://www.w3.org/TR/2001/REC-SVG-20010904/DTD/svg10.dtd">
<svg version="1.0" xmlns="http://www.w3.org/2000/svg"
 width="920.000000pt" height="920.000000pt" viewBox="0 0 920.000000 920.000000"
 preserveAspectRatio="xMidYMid meet">
<metadata>
Created by potrace 1.14, written by Peter Selinger 2001-2017
</metadata>
<g transform="translate(0.000000,920.000000) scale(0.100000,-0.100000)"
fill="#000000" stroke="none">
<path d="M7530 7546 l-235 -236 438 0 c414 0 437 1 428 18 -18 33 -218 269
-307 361 l-89 92 -235 -235z"/>
<path d="M6563 6707 c-239 -473 -506 -841 -888 -1222 -252 -252 -549 -489
-827 -660 -57 -35 -102 -70 -109 -85 -6 -14 -14 -54 -16 -90 -5 -61 -3 -67 22
-90 23 -21 36 -25 88 -24 52 0 75 7 143 42 205 104 451 259 665 418 69 52 129
94 133 94 3 0 6 -49 6 -110 l0 -110 1013 0 c1123 0 1071 -3 1142 65 46 43 47
85 3 151 -25 37 -76 80 -208 175 l-175 127 -116 -114 -116 -114 -726 0 c-400
0 -727 4 -727 8 0 4 44 46 97 92 305 267 609 607 865 967 l102 144 22 -38
c124 -213 334 -512 472 -673 336 -390 786 -766 1220 -1019 l73 -42 68 63 c71
66 208 144 329 188 l62 22 0 73 0 72 -87 33 c-139 53 -368 160 -518 244 -370
207 -639 409 -925 696 -199 199 -444 500 -406 500 23 0 57 50 50 74 -9 30 -67
103 -113 143 -34 28 -81 47 -276 109 -130 40 -239 74 -243 74 -4 0 -48 -82
-99 -183z"/>
<path d="M3865 6470 l-150 -150 -1642 0 -1643 0 0 -145 0 -145 795 0 c682 0
795 -2 795 -14 0 -8 -20 -119 -44 -248 -24 -128 -50 -267 -58 -308 l-13 -75
-255 -3 -255 -2 -193 110 c-106 60 -195 110 -197 110 -3 0 -5 -647 -5 -1439 0
-1049 3 -1447 11 -1472 25 -74 70 -96 149 -73 48 14 158 87 223 148 l37 35 0
95 0 96 782 0 783 0 -778 -778 -777 -777 82 -81 c117 -114 242 -221 393 -334
652 -489 1402 -783 2237 -877 212 -23 694 -23 906 0 1077 121 2012 574 2757
1338 154 158 333 366 370 430 6 10 48 72 95 138 239 339 444 748 579 1158 45
137 131 457 131 489 0 12 -72 14 -470 14 l-470 0 0 169 0 169 70 16 c176 39
204 100 100 211 -43 45 -394 297 -432 309 -8 3 -41 -32 -84 -87 l-70 -92 -810
-3 -809 -2 -190 114 -190 114 -3 -459 -2 -459 -955 0 -955 0 2 671 3 670 55
19 c61 21 90 49 90 89 0 61 -75 134 -299 296 l-145 104 -65 -90 -64 -89 -529
0 -528 0 23 48 c23 46 51 105 205 432 l78 165 934 5 935 5 43 23 c54 29 85 76
77 117 -11 62 -59 108 -275 268 -118 88 -220 163 -226 168 -6 5 -67 -49 -159
-141z m-575 -1735 l0 -355 -937 2 -938 3 -3 340 c-1 187 0 346 3 352 3 10 198
13 940 13 l935 0 0 -355z m4340 -825 l0 -200 -800 0 -800 0 0 200 0 200 800 0
800 0 0 -200z m-4340 -219 c0 -354 -2 -400 -16 -405 -9 -3 -429 -6 -935 -6
l-919 0 0 118 c0 65 -3 248 -7 405 l-6 287 941 0 942 0 0 -399z"/>
</g>
</svg>
